<svg width="461" height="175" viewBox="0 0 461 175" fill="none" xmlns="http://www.w3.org/2000/svg">
<g clip-path="url(#clip0_91_5)">
<path fill-rule="evenodd" clip-rule="evenodd" d="M100.375 83.375C102.881 83.3751 105.328 84.1361 107.393 85.5573C109.457 86.9786 111.041 88.9931 111.935 91.3343C112.829 93.6755 112.992 96.233 112.401 98.6685C111.81 101.104 110.493 103.303 108.625 104.974V125.413C108.625 125.765 108.535 126.11 108.364 126.418C108.192 126.725 107.945 126.983 107.646 127.168C107.347 127.353 107.005 127.458 106.654 127.473C106.302 127.489 105.953 127.414 105.638 127.257L100.375 124.625L95.1115 127.257C94.7971 127.414 94.4475 127.489 94.0962 127.473C93.7448 127.458 93.4033 127.353 93.104 127.168C92.8047 126.983 92.5577 126.725 92.3863 126.418C92.215 126.11 92.125 125.765 92.125 125.413V104.974C90.2571 103.303 88.9405 101.104 88.3494 98.6685C87.7583 96.233 87.9207 93.6755 88.8149 91.3343C89.7092 88.9931 91.2933 86.9786 93.3575 85.5573C95.4217 84.1361 97.8688 83.3751 100.375 83.375ZM104.5 54.5C106.688 54.5 108.786 55.3692 110.334 56.9164C111.881 58.4635 112.75 60.562 112.75 62.75V79.25C108.778 76.2712 103.865 74.8249 98.9129 75.1769C93.9607 75.5288 89.3015 77.6553 85.7909 81.1659C82.2803 84.6765 80.1538 89.3357 79.8019 94.2879C79.4499 99.2402 80.8962 104.153 83.875 108.125V120.5H38.5C36.312 120.5 34.2135 119.631 32.6664 118.084C31.1192 116.536 30.25 114.438 30.25 112.25V62.75C30.25 60.562 31.1192 58.4635 32.6664 56.9164C34.2135 55.3692 36.312 54.5 38.5 54.5H104.5ZM55 91.625H46.75C45.656 91.625 44.6068 92.0596 43.8332 92.8332C43.0596 93.6068 42.625 94.656 42.625 95.75C42.625 96.844 43.0596 97.8932 43.8332 98.6668C44.6068 99.4404 45.656 99.875 46.75 99.875H55C56.094 99.875 57.1432 99.4404 57.9168 98.6668C58.6904 97.8932 59.125 96.844 59.125 95.75C59.125 94.656 58.6904 93.6068 57.9168 92.8332C57.1432 92.0596 56.094 91.625 55 91.625ZM71.5 75.125H46.75C45.6986 75.1262 44.6874 75.5288 43.9229 76.2505C43.1583 76.9722 42.6983 77.9587 42.6367 79.0083C42.5751 80.0578 42.9165 81.0913 43.5913 81.8976C44.2662 82.7038 45.2234 83.222 46.2674 83.3461L46.75 83.375H71.5C72.5514 83.3738 73.5626 82.9713 74.3271 82.2495C75.0917 81.5278 75.5517 80.5413 75.6133 79.4917C75.675 78.4422 75.3335 77.4087 74.6587 76.6024C73.9838 75.7962 73.0266 75.2781 71.9826 75.1539L71.5 75.125Z" fill="#818CF8"/>
</g>
<path d="M184.773 81.3182H173.409C173.258 80.1515 172.947 79.0985 172.477 78.1591C172.008 77.2197 171.386 76.4167 170.614 75.75C169.841 75.0833 168.924 74.5758 167.864 74.2273C166.818 73.8636 165.659 73.6818 164.386 73.6818C162.129 73.6818 160.182 74.2348 158.545 75.3409C156.924 76.447 155.674 78.0455 154.795 80.1364C153.932 82.2273 153.5 84.7576 153.5 87.7273C153.5 90.8182 153.939 93.4091 154.818 95.5C155.712 97.5758 156.962 99.1439 158.568 100.205C160.189 101.25 162.106 101.773 164.318 101.773C165.561 101.773 166.689 101.614 167.705 101.295C168.735 100.977 169.636 100.515 170.409 99.9091C171.197 99.2879 171.841 98.5379 172.341 97.6591C172.856 96.7652 173.212 95.7576 173.409 94.6364L184.773 94.7045C184.576 96.7652 183.977 98.7955 182.977 100.795C181.992 102.795 180.636 104.621 178.909 106.273C177.182 107.909 175.076 109.212 172.591 110.182C170.121 111.152 167.288 111.636 164.091 111.636C159.879 111.636 156.106 110.712 152.773 108.864C149.455 107 146.833 104.288 144.909 100.727C142.985 97.1667 142.023 92.8333 142.023 87.7273C142.023 82.6061 143 78.2652 144.955 74.7045C146.909 71.1439 149.553 68.4394 152.886 66.5909C156.22 64.7424 159.955 63.8182 164.091 63.8182C166.909 63.8182 169.515 64.2121 171.909 65C174.303 65.7727 176.409 66.9091 178.227 68.4091C180.045 69.8939 181.523 71.7197 182.659 73.8864C183.795 76.053 184.5 78.5303 184.773 81.3182ZM207.528 111.659C203.877 111.659 200.725 110.939 198.074 109.5C195.438 108.045 193.407 105.977 191.983 103.295C190.574 100.598 189.869 97.3939 189.869 93.6818C189.869 90.0758 190.581 86.9242 192.006 84.2273C193.43 81.5152 195.438 79.4091 198.028 77.9091C200.619 76.3939 203.672 75.6364 207.188 75.6364C209.672 75.6364 211.945 76.0227 214.006 76.7955C216.066 77.5682 217.847 78.7121 219.347 80.2273C220.847 81.7424 222.013 83.6136 222.847 85.8409C223.68 88.053 224.097 90.5909 224.097 93.4545V96.2273H193.756V89.7727H213.756C213.741 88.5909 213.46 87.5379 212.915 86.6136C212.369 85.6894 211.619 84.9697 210.665 84.4545C209.725 83.9242 208.642 83.6591 207.415 83.6591C206.172 83.6591 205.059 83.9394 204.074 84.5C203.089 85.0455 202.309 85.7955 201.733 86.75C201.157 87.6894 200.854 88.7576 200.824 89.9545V96.5227C200.824 97.947 201.104 99.197 201.665 100.273C202.225 101.333 203.021 102.159 204.051 102.75C205.081 103.341 206.309 103.636 207.733 103.636C208.718 103.636 209.612 103.5 210.415 103.227C211.218 102.955 211.907 102.553 212.483 102.023C213.059 101.492 213.491 100.841 213.778 100.068L223.983 100.364C223.559 102.652 222.627 104.644 221.188 106.341C219.763 108.023 217.892 109.333 215.574 110.273C213.256 111.197 210.574 111.659 207.528 111.659ZM229.773 111V76.0909H240.568V82.4545H240.932C241.568 80.1515 242.606 78.4394 244.045 77.3182C245.485 76.1818 247.159 75.6136 249.068 75.6136C249.583 75.6136 250.114 75.6515 250.659 75.7273C251.205 75.7879 251.712 75.8864 252.182 76.0227V85.6818C251.652 85.5 250.955 85.3561 250.091 85.25C249.242 85.1439 248.485 85.0909 247.818 85.0909C246.5 85.0909 245.311 85.3864 244.25 85.9773C243.205 86.553 242.379 87.3636 241.773 88.4091C241.182 89.4394 240.886 90.6515 240.886 92.0455V111H229.773ZM278.04 76.0909V84.2727H256.017V76.0909H278.04ZM260.631 67.7273H271.744V100.023C271.744 100.705 271.85 101.258 272.062 101.682C272.29 102.091 272.616 102.386 273.04 102.568C273.464 102.735 273.972 102.818 274.562 102.818C274.987 102.818 275.434 102.78 275.903 102.705C276.388 102.614 276.752 102.538 276.994 102.477L278.676 110.5C278.146 110.652 277.396 110.841 276.426 111.068C275.472 111.295 274.328 111.439 272.994 111.5C270.388 111.621 268.153 111.318 266.29 110.591C264.441 109.848 263.025 108.697 262.04 107.136C261.07 105.576 260.6 103.614 260.631 101.25V67.7273ZM283.71 111V76.0909H294.824V111H283.71ZM289.278 72.0227C287.718 72.0227 286.377 71.5076 285.256 70.4773C284.134 69.4318 283.574 68.1742 283.574 66.7045C283.574 65.25 284.134 64.0076 285.256 62.9773C286.377 61.9318 287.718 61.4091 289.278 61.4091C290.854 61.4091 292.195 61.9318 293.301 62.9773C294.422 64.0076 294.983 65.25 294.983 66.7045C294.983 68.1742 294.422 69.4318 293.301 70.4773C292.195 71.5076 290.854 72.0227 289.278 72.0227ZM321.739 76.0909V84.2727H299.284V76.0909H321.739ZM303.966 111V74.3182C303.966 71.6212 304.473 69.3864 305.489 67.6136C306.504 65.8258 307.913 64.4924 309.716 63.6136C311.519 62.7197 313.602 62.2727 315.966 62.2727C317.511 62.2727 318.966 62.3939 320.33 62.6364C321.708 62.8636 322.731 63.0682 323.398 63.25L321.625 71.3864C321.216 71.25 320.716 71.1364 320.125 71.0455C319.549 70.9545 319.004 70.9091 318.489 70.9091C317.186 70.9091 316.292 71.197 315.807 71.7727C315.322 72.3485 315.08 73.1364 315.08 74.1364V111H303.966ZM342.256 111.659C338.589 111.659 335.438 110.909 332.801 109.409C330.18 107.894 328.157 105.788 326.733 103.091C325.324 100.379 324.619 97.2348 324.619 93.6591C324.619 90.0682 325.324 86.9242 326.733 84.2273C328.157 81.5152 330.18 79.4091 332.801 77.9091C335.438 76.3939 338.589 75.6364 342.256 75.6364C345.922 75.6364 349.066 76.3939 351.688 77.9091C354.324 79.4091 356.347 81.5152 357.756 84.2273C359.18 86.9242 359.892 90.0682 359.892 93.6591C359.892 97.2348 359.18 100.379 357.756 103.091C356.347 105.788 354.324 107.894 351.688 109.409C349.066 110.909 345.922 111.659 342.256 111.659ZM342.324 103.273C343.657 103.273 344.786 102.864 345.71 102.045C346.634 101.227 347.339 100.091 347.824 98.6364C348.324 97.1818 348.574 95.5 348.574 93.5909C348.574 91.6515 348.324 89.9545 347.824 88.5C347.339 87.0455 346.634 85.9091 345.71 85.0909C344.786 84.2727 343.657 83.8636 342.324 83.8636C340.945 83.8636 339.778 84.2727 338.824 85.0909C337.884 85.9091 337.165 87.0455 336.665 88.5C336.18 89.9545 335.938 91.6515 335.938 93.5909C335.938 95.5 336.18 97.1818 336.665 98.6364C337.165 100.091 337.884 101.227 338.824 102.045C339.778 102.864 340.945 103.273 342.324 103.273ZM376.699 64.4545V111H365.585V64.4545H376.699ZM383.773 111V76.0909H394.886V111H383.773ZM389.341 72.0227C387.78 72.0227 386.439 71.5076 385.318 70.4773C384.197 69.4318 383.636 68.1742 383.636 66.7045C383.636 65.25 384.197 64.0076 385.318 62.9773C386.439 61.9318 387.78 61.4091 389.341 61.4091C390.917 61.4091 392.258 61.9318 393.364 62.9773C394.485 64.0076 395.045 65.25 395.045 66.7045C395.045 68.1742 394.485 69.4318 393.364 70.4773C392.258 71.5076 390.917 72.0227 389.341 72.0227ZM418.256 111.659C414.589 111.659 411.438 110.909 408.801 109.409C406.18 107.894 404.157 105.788 402.733 103.091C401.324 100.379 400.619 97.2348 400.619 93.6591C400.619 90.0682 401.324 86.9242 402.733 84.2273C404.157 81.5152 406.18 79.4091 408.801 77.9091C411.438 76.3939 414.589 75.6364 418.256 75.6364C421.922 75.6364 425.066 76.3939 427.688 77.9091C430.324 79.4091 432.347 81.5152 433.756 84.2273C435.18 86.9242 435.892 90.0682 435.892 93.6591C435.892 97.2348 435.18 100.379 433.756 103.091C432.347 105.788 430.324 107.894 427.688 109.409C425.066 110.909 421.922 111.659 418.256 111.659ZM418.324 103.273C419.657 103.273 420.786 102.864 421.71 102.045C422.634 101.227 423.339 100.091 423.824 98.6364C424.324 97.1818 424.574 95.5 424.574 93.5909C424.574 91.6515 424.324 89.9545 423.824 88.5C423.339 87.0455 422.634 85.9091 421.71 85.0909C420.786 84.2727 419.657 83.8636 418.324 83.8636C416.945 83.8636 415.778 84.2727 414.824 85.0909C413.884 85.9091 413.165 87.0455 412.665 88.5C412.18 89.9545 411.938 91.6515 411.938 93.5909C411.938 95.5 412.18 97.1818 412.665 98.6364C413.165 100.091 413.884 101.227 414.824 102.045C415.778 102.864 416.945 103.273 418.324 103.273Z" fill="white"/>
<defs>
<clipPath id="clip0_91_5">
<rect width="99" height="99" fill="white" transform="translate(22 38)"/>
</clipPath>
</defs>
</svg>
